<?xml version="1.0" standalone="no"?>
<!DOCTYPE svg PUBLIC "-//W3C//DTD SVG 20010904//EN"
 "http://www.w3.org/TR/2001/REC-SVG-20010904/DTD/svg10.dtd">
<svg version="1.0" xmlns="http://www.w3.org/2000/svg"
 width="85.000000pt" height="85.000000pt" viewBox="0 0 85.000000 85.000000"
 preserveAspectRatio="xMidYMid meet">

<g transform="translate(0.000000,85.000000) scale(0.100000,-0.100000)"
fill="#000000" stroke="none">
<path d="M390 822 c-14 -10 -40 -24 -59 -32 -39 -16 -52 -42 -75 -154 -16 -75
-14 -160 3 -171 4 -2 17 -1 29 2 19 5 22 12 22 57 0 28 5 58 11 66 7 10 8 -9
2 -65 -9 -86 -7 -403 3 -473 5 -43 6 -43 42 -40 l37 3 6 145 c4 80 7 163 8
184 0 22 4 36 7 33 4 -4 10 -86 13 -184 l6 -178 40 0 40 0 8 125 c4 69 6 197
4 285 -2 88 -2 135 0 104 4 -56 13 -68 54 -69 17 0 19 111 4 186 -19 93 -33
123 -60 138 -11 5 -32 18 -46 28 -44 28 -72 31 -99 10z"/>
</g>
</svg>
